<?xml version="1.0" encoding="iso-8859-1"?>
<!-- Generator: Adobe Illustrator 19.0.0, SVG Export Plug-In . SVG Version: 6.00 Build 0)  -->
<svg version="1.1" id="Capa_1" xmlns="http://www.w3.org/2000/svg" xmlns:xlink="http://www.w3.org/1999/xlink" x="0px" y="0px"
	 viewBox="0 0 431.104 431.104" style="enable-background:new 0 0 431.104 431.104;" xml:space="preserve">
<g>
	<g>
		<path d="M351.744,87.296h-45.568v-7.168c0-30.72-24.576-54.784-54.784-54.784h-70.656c-30.72,0-54.784,24.576-54.784,54.784v7.168
			H80.384c-44.544,0-79.872,35.328-79.872,79.36v9.728h430.592v-9.728C431.104,122.624,395.776,87.296,351.744,87.296z
			 M268.8,87.296H162.304v-7.168c0-10.24,7.68-18.432,18.432-18.432h70.144c10.24,0,18.432,7.68,18.432,18.432L268.8,87.296z"/>
	</g>
</g>
<g>
	<g>
		<path d="M0,197.376v129.536c0,43.52,35.84,78.848,79.36,78.848h271.872c44.032,0,79.36-35.328,79.36-79.36V197.376H0z"/>
	</g>
</g>
<g>
</g>
<g>
</g>
<g>
</g>
<g>
</g>
<g>
</g>
<g>
</g>
<g>
</g>
<g>
</g>
<g>
</g>
<g>
</g>
<g>
</g>
<g>
</g>
<g>
</g>
<g>
</g>
<g>
</g>
</svg>
